<mxfile host="app.diagrams.net" modified="2023-11-19T11:10:59.008Z" agent="Mozilla/5.0 (Windows NT 10.0; Win64; x64) AppleWebKit/537.36 (KHTML, like Gecko) Chrome/119.0.0.0 Safari/537.36" etag="SeTN14u5pPZoniXBl0O1" version="22.1.3" type="device">
  <diagram name="Page-1" id="konOvid_jxyRg7x1euFX">
    <mxGraphModel dx="1114" dy="602" grid="1" gridSize="10" guides="1" tooltips="1" connect="1" arrows="1" fold="1" page="1" pageScale="1" pageWidth="1169" pageHeight="827" math="0" shadow="0">
      <root>
        <mxCell id="0" />
        <mxCell id="1" parent="0" />
        <mxCell id="Hv-V3Eee37Dthrastc6U-2" value="" style="rounded=0;whiteSpace=wrap;html=1;fillColor=none;strokeColor=#000000;fontSize=12;" parent="1" vertex="1">
          <mxGeometry x="140" y="480" width="140" height="98" as="geometry" />
        </mxCell>
        <mxCell id="VG95xZpkFGLo3Tgad-iD-1" value="&lt;b style=&quot;font-size: 12px;&quot;&gt;Place&lt;/b&gt;" style="swimlane;fontStyle=0;childLayout=stackLayout;horizontal=1;startSize=26;fillColor=#dae8fc;horizontalStack=0;resizeParent=1;resizeParentMax=0;resizeLast=0;collapsible=1;marginBottom=0;whiteSpace=wrap;html=1;strokeColor=#6c8ebf;fontSize=12;" parent="1" vertex="1">
          <mxGeometry x="340" y="500" width="120" height="78" as="geometry" />
        </mxCell>
        <mxCell id="VG95xZpkFGLo3Tgad-iD-2" value="name" style="text;strokeColor=#6c8ebf;fillColor=#dae8fc;align=left;verticalAlign=top;spacingLeft=4;spacingRight=4;overflow=hidden;rotatable=0;points=[[0,0.5],[1,0.5]];portConstraint=eastwest;whiteSpace=wrap;html=1;fontSize=12;" parent="VG95xZpkFGLo3Tgad-iD-1" vertex="1">
          <mxGeometry y="26" width="120" height="26" as="geometry" />
        </mxCell>
        <mxCell id="G5qrOh6P8mnKoIhnmndd-3" value="location" style="text;strokeColor=#6c8ebf;fillColor=#dae8fc;align=left;verticalAlign=top;spacingLeft=4;spacingRight=4;overflow=hidden;rotatable=0;points=[[0,0.5],[1,0.5]];portConstraint=eastwest;whiteSpace=wrap;html=1;fontSize=12;" parent="VG95xZpkFGLo3Tgad-iD-1" vertex="1">
          <mxGeometry y="52" width="120" height="26" as="geometry" />
        </mxCell>
        <mxCell id="VG95xZpkFGLo3Tgad-iD-10" value="&lt;b style=&quot;font-size: 12px;&quot;&gt;Path&lt;/b&gt;" style="swimlane;fontStyle=0;childLayout=stackLayout;horizontal=1;startSize=26;fillColor=none;horizontalStack=0;resizeParent=1;resizeParentMax=0;resizeLast=0;collapsible=1;marginBottom=0;whiteSpace=wrap;html=1;fontSize=12;" parent="1" vertex="1">
          <mxGeometry x="720" y="80" width="120" height="78" as="geometry" />
        </mxCell>
        <mxCell id="VG95xZpkFGLo3Tgad-iD-11" value="distance" style="text;strokeColor=none;fillColor=none;align=left;verticalAlign=top;spacingLeft=4;spacingRight=4;overflow=hidden;rotatable=0;points=[[0,0.5],[1,0.5]];portConstraint=eastwest;whiteSpace=wrap;html=1;fontSize=12;" parent="VG95xZpkFGLo3Tgad-iD-10" vertex="1">
          <mxGeometry y="26" width="120" height="26" as="geometry" />
        </mxCell>
        <mxCell id="VG95xZpkFGLo3Tgad-iD-12" value="polyline" style="text;strokeColor=none;fillColor=none;align=left;verticalAlign=top;spacingLeft=4;spacingRight=4;overflow=hidden;rotatable=0;points=[[0,0.5],[1,0.5]];portConstraint=eastwest;whiteSpace=wrap;html=1;fontSize=12;" parent="VG95xZpkFGLo3Tgad-iD-10" vertex="1">
          <mxGeometry y="52" width="120" height="26" as="geometry" />
        </mxCell>
        <mxCell id="VG95xZpkFGLo3Tgad-iD-18" value="&lt;b style=&quot;font-size: 12px;&quot;&gt;Direction&lt;/b&gt;" style="swimlane;fontStyle=0;childLayout=stackLayout;horizontal=1;startSize=26;fillColor=#dae8fc;horizontalStack=0;resizeParent=1;resizeParentMax=0;resizeLast=0;collapsible=1;marginBottom=0;whiteSpace=wrap;html=1;strokeColor=#6c8ebf;fontSize=12;" parent="1" vertex="1">
          <mxGeometry x="720" y="526" width="120" height="52" as="geometry" />
        </mxCell>
        <mxCell id="QXLWXwz8wcb1lHL0t-fS-2" value="" style="text;strokeColor=#6c8ebf;fillColor=#dae8fc;align=left;verticalAlign=top;spacingLeft=4;spacingRight=4;overflow=hidden;rotatable=0;points=[[0,0.5],[1,0.5]];portConstraint=eastwest;whiteSpace=wrap;html=1;fontSize=12;" parent="VG95xZpkFGLo3Tgad-iD-18" vertex="1">
          <mxGeometry y="26" width="120" height="26" as="geometry" />
        </mxCell>
        <mxCell id="VG95xZpkFGLo3Tgad-iD-24" value="&lt;b style=&quot;font-size: 12px;&quot;&gt;ExtendedPlace&lt;/b&gt;" style="swimlane;fontStyle=0;childLayout=stackLayout;horizontal=1;startSize=26;fillColor=#d5e8d4;horizontalStack=0;resizeParent=1;resizeParentMax=0;resizeLast=0;collapsible=1;marginBottom=0;whiteSpace=wrap;html=1;strokeColor=#82b366;fontSize=12;" parent="1" vertex="1">
          <mxGeometry x="340" y="360" width="120" height="52" as="geometry" />
        </mxCell>
        <mxCell id="G5qrOh6P8mnKoIhnmndd-20" value="attributes" style="text;strokeColor=#82b366;fillColor=#d5e8d4;align=left;verticalAlign=top;spacingLeft=4;spacingRight=4;overflow=hidden;rotatable=0;points=[[0,0.5],[1,0.5]];portConstraint=eastwest;whiteSpace=wrap;html=1;fontSize=12;" parent="VG95xZpkFGLo3Tgad-iD-24" vertex="1">
          <mxGeometry y="26" width="120" height="26" as="geometry" />
        </mxCell>
        <mxCell id="G5qrOh6P8mnKoIhnmndd-4" value="&lt;b style=&quot;font-size: 12px;&quot;&gt;Category&lt;/b&gt;" style="swimlane;fontStyle=0;childLayout=stackLayout;horizontal=1;startSize=26;fillColor=none;horizontalStack=0;resizeParent=1;resizeParentMax=0;resizeLast=0;collapsible=1;marginBottom=0;whiteSpace=wrap;html=1;fontSize=12;" parent="1" vertex="1">
          <mxGeometry x="340" y="220" width="120" height="52" as="geometry" />
        </mxCell>
        <mxCell id="G5qrOh6P8mnKoIhnmndd-81" value="attributeFilters" style="text;strokeColor=none;fillColor=none;align=left;verticalAlign=top;spacingLeft=4;spacingRight=4;overflow=hidden;rotatable=0;points=[[0,0.5],[1,0.5]];portConstraint=eastwest;whiteSpace=wrap;html=1;fontSize=12;" parent="G5qrOh6P8mnKoIhnmndd-4" vertex="1">
          <mxGeometry y="26" width="120" height="26" as="geometry" />
        </mxCell>
        <mxCell id="G5qrOh6P8mnKoIhnmndd-6" value="&lt;b style=&quot;font-size: 12px;&quot;&gt;Keyword&lt;/b&gt;" style="swimlane;fontStyle=0;childLayout=stackLayout;horizontal=1;startSize=26;fillColor=none;horizontalStack=0;resizeParent=1;resizeParentMax=0;resizeLast=0;collapsible=1;marginBottom=0;whiteSpace=wrap;html=1;strokeWidth=1;strokeColor=default;perimeterSpacing=0;fontSize=12;" parent="1" vertex="1">
          <mxGeometry x="140" y="220" width="120" height="52" as="geometry" />
        </mxCell>
        <mxCell id="5qe504W4-8BHH3CjdmVA-1" value="label" style="text;strokeColor=none;fillColor=none;align=left;verticalAlign=top;spacingLeft=4;spacingRight=4;overflow=hidden;rotatable=0;points=[[0,0.5],[1,0.5]];portConstraint=eastwest;whiteSpace=wrap;html=1;fontSize=12;" parent="G5qrOh6P8mnKoIhnmndd-6" vertex="1">
          <mxGeometry y="26" width="120" height="26" as="geometry" />
        </mxCell>
        <mxCell id="G5qrOh6P8mnKoIhnmndd-12" value="matches \/" style="endArrow=none;html=1;rounded=0;fontSize=12;" parent="1" source="VG95xZpkFGLo3Tgad-iD-24" target="G5qrOh6P8mnKoIhnmndd-4" edge="1">
          <mxGeometry width="50" height="50" relative="1" as="geometry">
            <mxPoint x="360" y="490" as="sourcePoint" />
            <mxPoint x="410" y="440" as="targetPoint" />
          </mxGeometry>
        </mxCell>
        <mxCell id="G5qrOh6P8mnKoIhnmndd-13" value="" style="endArrow=diamondThin;endFill=1;endSize=24;html=1;rounded=0;fontSize=12;" parent="1" source="G5qrOh6P8mnKoIhnmndd-6" target="G5qrOh6P8mnKoIhnmndd-4" edge="1">
          <mxGeometry x="-0.75" width="160" relative="1" as="geometry">
            <mxPoint x="260" y="499" as="sourcePoint" />
            <mxPoint x="340" y="499" as="targetPoint" />
            <mxPoint as="offset" />
          </mxGeometry>
        </mxCell>
        <mxCell id="G5qrOh6P8mnKoIhnmndd-55" value="&amp;lt; visits" style="edgeStyle=orthogonalEdgeStyle;rounded=1;orthogonalLoop=1;jettySize=auto;html=1;endArrow=none;endFill=0;fontSize=12;entryX=1;entryY=0.25;entryDx=0;entryDy=0;" parent="1" source="G5qrOh6P8mnKoIhnmndd-17" target="VG95xZpkFGLo3Tgad-iD-1" edge="1">
          <mxGeometry x="0.4483" relative="1" as="geometry">
            <Array as="points">
              <mxPoint x="570" y="519" />
            </Array>
            <mxPoint as="offset" />
            <mxPoint x="490" y="510" as="targetPoint" />
          </mxGeometry>
        </mxCell>
        <mxCell id="G5qrOh6P8mnKoIhnmndd-17" value="&lt;b style=&quot;font-size: 12px;&quot;&gt;Route&lt;/b&gt;" style="swimlane;fontStyle=0;childLayout=stackLayout;horizontal=1;startSize=26;fillColor=#dae8fc;horizontalStack=0;resizeParent=1;resizeParentMax=0;resizeLast=0;collapsible=1;marginBottom=0;whiteSpace=wrap;html=1;strokeColor=#6c8ebf;fontSize=12;" parent="1" vertex="1">
          <mxGeometry x="542" y="360" width="118" height="52" as="geometry" />
        </mxCell>
        <mxCell id="QXLWXwz8wcb1lHL0t-fS-1" value="" style="text;strokeColor=#6c8ebf;fillColor=#dae8fc;align=left;verticalAlign=top;spacingLeft=4;spacingRight=4;overflow=hidden;rotatable=0;points=[[0,0.5],[1,0.5]];portConstraint=eastwest;whiteSpace=wrap;html=1;fontSize=12;" parent="G5qrOh6P8mnKoIhnmndd-17" vertex="1">
          <mxGeometry y="26" width="118" height="26" as="geometry" />
        </mxCell>
        <mxCell id="G5qrOh6P8mnKoIhnmndd-46" value="bounds \/" style="edgeStyle=orthogonalEdgeStyle;rounded=0;orthogonalLoop=1;jettySize=auto;html=1;endArrow=none;endFill=0;fontSize=12;" parent="1" source="G5qrOh6P8mnKoIhnmndd-43" target="G5qrOh6P8mnKoIhnmndd-4" edge="1">
          <mxGeometry relative="1" as="geometry" />
        </mxCell>
        <mxCell id="G5qrOh6P8mnKoIhnmndd-43" value="&lt;b style=&quot;font-size: 12px;&quot;&gt;AdviceItem&lt;/b&gt;" style="swimlane;fontStyle=0;childLayout=stackLayout;horizontal=1;startSize=26;fillColor=#d5e8d4;horizontalStack=0;resizeParent=1;resizeParentMax=0;resizeLast=0;collapsible=1;marginBottom=0;whiteSpace=wrap;html=1;strokeColor=#82b366;fontSize=12;" parent="1" vertex="1">
          <mxGeometry x="340" y="80" width="120" height="52" as="geometry" />
        </mxCell>
        <mxCell id="G5qrOh6P8mnKoIhnmndd-48" value="attributeBounds" style="text;strokeColor=#82b366;fillColor=#d5e8d4;align=left;verticalAlign=top;spacingLeft=4;spacingRight=4;overflow=hidden;rotatable=0;points=[[0,0.5],[1,0.5]];portConstraint=eastwest;whiteSpace=wrap;html=1;fontStyle=0;fontSize=12;" parent="G5qrOh6P8mnKoIhnmndd-43" vertex="1">
          <mxGeometry y="26" width="120" height="26" as="geometry" />
        </mxCell>
        <mxCell id="G5qrOh6P8mnKoIhnmndd-53" value="" style="endArrow=block;endSize=16;endFill=0;html=1;rounded=0;fontSize=12;" parent="1" source="VG95xZpkFGLo3Tgad-iD-24" target="VG95xZpkFGLo3Tgad-iD-1" edge="1">
          <mxGeometry x="-0.1765" width="160" relative="1" as="geometry">
            <mxPoint x="490" y="290" as="sourcePoint" />
            <mxPoint x="650" y="290" as="targetPoint" />
            <mxPoint as="offset" />
          </mxGeometry>
        </mxCell>
        <mxCell id="G5qrOh6P8mnKoIhnmndd-59" value="" style="endArrow=block;endSize=16;endFill=0;html=1;rounded=1;entryX=0.25;entryY=1;entryDx=0;entryDy=0;edgeStyle=orthogonalEdgeStyle;exitX=0.75;exitY=0;exitDx=0;exitDy=0;fontSize=12;" parent="1" source="G5qrOh6P8mnKoIhnmndd-17" target="VG95xZpkFGLo3Tgad-iD-10" edge="1">
          <mxGeometry x="-0.0625" width="160" relative="1" as="geometry">
            <mxPoint x="650" y="220" as="sourcePoint" />
            <mxPoint x="740" y="210" as="targetPoint" />
            <Array as="points">
              <mxPoint x="631" y="260" />
              <mxPoint x="750" y="260" />
            </Array>
            <mxPoint as="offset" />
          </mxGeometry>
        </mxCell>
        <mxCell id="G5qrOh6P8mnKoIhnmndd-60" value="" style="endArrow=block;endSize=16;endFill=0;html=1;rounded=1;fontSize=12;" parent="1" source="VG95xZpkFGLo3Tgad-iD-18" target="VG95xZpkFGLo3Tgad-iD-10" edge="1">
          <mxGeometry width="160" relative="1" as="geometry">
            <mxPoint x="673" y="330" as="sourcePoint" />
            <mxPoint x="823" y="220" as="targetPoint" />
          </mxGeometry>
        </mxCell>
        <mxCell id="G5qrOh6P8mnKoIhnmndd-61" value="&amp;lt; visits" style="rounded=1;orthogonalLoop=1;jettySize=auto;html=1;endArrow=none;endFill=0;fontSize=12;exitX=0;exitY=0.75;exitDx=0;exitDy=0;" parent="1" source="VG95xZpkFGLo3Tgad-iD-18" target="G5qrOh6P8mnKoIhnmndd-3" edge="1">
          <mxGeometry x="0.0196" relative="1" as="geometry">
            <mxPoint x="730" y="450" as="sourcePoint" />
            <mxPoint x="490" y="516" as="targetPoint" />
            <mxPoint as="offset" />
          </mxGeometry>
        </mxCell>
        <mxCell id="G5qrOh6P8mnKoIhnmndd-64" value="3..*" style="text;html=1;strokeColor=none;fillColor=default;align=center;verticalAlign=middle;whiteSpace=wrap;rounded=0;fontSize=12;" parent="1" vertex="1">
          <mxGeometry x="463" y="512" width="20" height="16" as="geometry" />
        </mxCell>
        <mxCell id="G5qrOh6P8mnKoIhnmndd-65" value="2..*" style="text;html=1;strokeColor=none;fillColor=default;align=center;verticalAlign=middle;whiteSpace=wrap;rounded=0;fontSize=12;" parent="1" vertex="1">
          <mxGeometry x="463" y="557" width="20" height="16" as="geometry" />
        </mxCell>
        <mxCell id="G5qrOh6P8mnKoIhnmndd-67" value="0..*" style="text;html=1;strokeColor=none;fillColor=default;align=center;verticalAlign=middle;whiteSpace=wrap;rounded=0;fontSize=12;" parent="1" vertex="1">
          <mxGeometry x="697" y="557" width="20" height="16" as="geometry" />
        </mxCell>
        <mxCell id="G5qrOh6P8mnKoIhnmndd-70" value="1" style="text;html=1;strokeColor=none;fillColor=default;align=left;verticalAlign=middle;whiteSpace=wrap;rounded=0;fontSize=12;" parent="1" vertex="1">
          <mxGeometry x="263" y="238" width="10" height="16" as="geometry" />
        </mxCell>
        <mxCell id="G5qrOh6P8mnKoIhnmndd-73" value="0..*" style="text;html=1;strokeColor=none;fillColor=default;align=right;verticalAlign=middle;whiteSpace=wrap;rounded=0;fontSize=12;" parent="1" vertex="1">
          <mxGeometry x="390" y="201" width="20" height="16" as="geometry" />
        </mxCell>
        <mxCell id="G5qrOh6P8mnKoIhnmndd-74" value="0..*" style="text;html=1;strokeColor=none;fillColor=default;align=center;verticalAlign=middle;whiteSpace=wrap;rounded=0;fontSize=12;" parent="1" vertex="1">
          <mxGeometry x="390" y="341" width="20" height="16" as="geometry" />
        </mxCell>
        <mxCell id="G5qrOh6P8mnKoIhnmndd-75" value="1" style="text;html=1;strokeColor=none;fillColor=default;align=right;verticalAlign=middle;whiteSpace=wrap;rounded=0;fontSize=12;" parent="1" vertex="1">
          <mxGeometry x="395" y="135" width="10" height="16" as="geometry" />
        </mxCell>
        <mxCell id="G5qrOh6P8mnKoIhnmndd-76" value="0..*" style="text;html=1;strokeColor=none;fillColor=default;align=center;verticalAlign=middle;whiteSpace=wrap;rounded=0;fontSize=12;" parent="1" vertex="1">
          <mxGeometry x="390" y="275" width="20" height="16" as="geometry" />
        </mxCell>
        <mxCell id="G5qrOh6P8mnKoIhnmndd-79" value="&amp;lt; orders" style="edgeStyle=orthogonalEdgeStyle;rounded=1;orthogonalLoop=1;jettySize=auto;html=1;endArrow=none;endFill=0;entryX=1;entryY=0.25;entryDx=0;entryDy=0;fontSize=12;" parent="1" source="G5qrOh6P8mnKoIhnmndd-77" target="G5qrOh6P8mnKoIhnmndd-4" edge="1">
          <mxGeometry x="0.4313" relative="1" as="geometry">
            <Array as="points">
              <mxPoint x="570" y="233" />
            </Array>
            <mxPoint as="offset" />
          </mxGeometry>
        </mxCell>
        <mxCell id="G5qrOh6P8mnKoIhnmndd-77" value="&lt;b style=&quot;font-size: 12px;&quot;&gt;Arrow&lt;/b&gt;" style="swimlane;fontStyle=0;childLayout=stackLayout;horizontal=1;startSize=26;fillColor=none;horizontalStack=0;resizeParent=1;resizeParentMax=0;resizeLast=0;collapsible=1;marginBottom=0;whiteSpace=wrap;html=1;fontSize=12;" parent="1" vertex="1">
          <mxGeometry x="540" y="80" width="120" height="52" as="geometry" />
        </mxCell>
        <mxCell id="G5qrOh6P8mnKoIhnmndd-84" value="0..*" style="text;html=1;align=right;verticalAlign=middle;whiteSpace=wrap;rounded=0;fontSize=12;fillColor=default;" parent="1" vertex="1">
          <mxGeometry x="560" y="135" width="20" height="16" as="geometry" />
        </mxCell>
        <mxCell id="u82XSwnRuq5FV2FXC3i8-2" value="" style="rounded=0;whiteSpace=wrap;html=1;fillColor=#d5e8d4;strokeColor=#82b366;fontSize=12;" parent="1" vertex="1">
          <mxGeometry x="150" y="518" width="20" height="20" as="geometry" />
        </mxCell>
        <mxCell id="u82XSwnRuq5FV2FXC3i8-3" value="Public storage" style="text;html=1;strokeColor=none;fillColor=none;align=left;verticalAlign=middle;whiteSpace=wrap;rounded=0;fontSize=12;" parent="1" vertex="1">
          <mxGeometry x="180" y="518" width="90" height="20" as="geometry" />
        </mxCell>
        <mxCell id="u82XSwnRuq5FV2FXC3i8-4" value="" style="rounded=0;whiteSpace=wrap;html=1;fillColor=#dae8fc;strokeColor=#6c8ebf;fontSize=12;" parent="1" vertex="1">
          <mxGeometry x="150" y="548" width="20" height="20" as="geometry" />
        </mxCell>
        <mxCell id="u82XSwnRuq5FV2FXC3i8-5" value="Private storage" style="text;html=1;strokeColor=none;fillColor=none;align=left;verticalAlign=middle;whiteSpace=wrap;rounded=0;fontSize=12;" parent="1" vertex="1">
          <mxGeometry x="180" y="548" width="90" height="20" as="geometry" />
        </mxCell>
        <mxCell id="h2D3jr5BLSP2ob248dtN-1" value="&amp;lt; defined by" style="endArrow=none;html=1;rounded=1;edgeStyle=orthogonalEdgeStyle;fontSize=12;" parent="1" source="G5qrOh6P8mnKoIhnmndd-6" target="G5qrOh6P8mnKoIhnmndd-43" edge="1">
          <mxGeometry x="0.4488" width="50" height="50" relative="1" as="geometry">
            <mxPoint x="280" y="220" as="sourcePoint" />
            <mxPoint x="330" y="170" as="targetPoint" />
            <Array as="points">
              <mxPoint x="200" y="106" />
            </Array>
            <mxPoint as="offset" />
          </mxGeometry>
        </mxCell>
        <mxCell id="h2D3jr5BLSP2ob248dtN-2" value="&amp;lt; instance of" style="endArrow=none;html=1;rounded=1;edgeStyle=orthogonalEdgeStyle;fontSize=12;" parent="1" source="VG95xZpkFGLo3Tgad-iD-1" target="G5qrOh6P8mnKoIhnmndd-6" edge="1">
          <mxGeometry x="-0.3301" width="50" height="50" relative="1" as="geometry">
            <mxPoint x="330" y="350" as="sourcePoint" />
            <mxPoint x="380" y="300" as="targetPoint" />
            <Array as="points">
              <mxPoint x="370" y="450" />
              <mxPoint x="200" y="450" />
            </Array>
            <mxPoint as="offset" />
          </mxGeometry>
        </mxCell>
        <mxCell id="h2D3jr5BLSP2ob248dtN-3" value="" style="endArrow=diamondThin;endFill=1;endSize=24;html=1;rounded=1;edgeStyle=orthogonalEdgeStyle;fontSize=12;" parent="1" source="G5qrOh6P8mnKoIhnmndd-81" target="G5qrOh6P8mnKoIhnmndd-17" edge="1">
          <mxGeometry width="160" relative="1" as="geometry">
            <mxPoint x="510" y="260" as="sourcePoint" />
            <mxPoint x="670" y="240" as="targetPoint" />
            <Array as="points">
              <mxPoint x="570" y="259" />
            </Array>
          </mxGeometry>
        </mxCell>
        <mxCell id="h2D3jr5BLSP2ob248dtN-4" value="" style="endArrow=diamondThin;endFill=1;endSize=24;html=1;rounded=0;fontSize=12;" parent="1" source="G5qrOh6P8mnKoIhnmndd-77" target="G5qrOh6P8mnKoIhnmndd-17" edge="1">
          <mxGeometry width="160" relative="1" as="geometry">
            <mxPoint x="630" y="170" as="sourcePoint" />
            <mxPoint x="670" y="240" as="targetPoint" />
          </mxGeometry>
        </mxCell>
        <mxCell id="h2D3jr5BLSP2ob248dtN-5" value="1" style="text;html=1;strokeColor=none;fillColor=default;align=right;verticalAlign=middle;whiteSpace=wrap;rounded=0;fontSize=12;" parent="1" vertex="1">
          <mxGeometry x="195" y="201" width="10" height="16" as="geometry" />
        </mxCell>
        <mxCell id="h2D3jr5BLSP2ob248dtN-7" value="1..*" style="text;html=1;strokeColor=none;fillColor=default;align=center;verticalAlign=middle;whiteSpace=wrap;rounded=0;fontSize=12;" parent="1" vertex="1">
          <mxGeometry x="463" y="251" width="20" height="16" as="geometry" />
        </mxCell>
        <mxCell id="h2D3jr5BLSP2ob248dtN-8" value="1..*" style="text;html=1;strokeColor=none;fillColor=default;align=center;verticalAlign=middle;whiteSpace=wrap;rounded=0;fontSize=12;" parent="1" vertex="1">
          <mxGeometry x="360" y="481" width="20" height="16" as="geometry" />
        </mxCell>
        <mxCell id="Hv-V3Eee37Dthrastc6U-3" value="Legend" style="text;html=1;strokeColor=none;fillColor=none;align=center;verticalAlign=middle;whiteSpace=wrap;rounded=0;fontStyle=1;fontSize=12;" parent="1" vertex="1">
          <mxGeometry x="140" y="480" width="140" height="30" as="geometry" />
        </mxCell>
        <mxCell id="-s6-AU1Ji8MIg3m7ms6S-1" value="1" style="text;html=1;strokeColor=none;fillColor=default;align=right;verticalAlign=middle;whiteSpace=wrap;rounded=0;fontSize=12;" parent="1" vertex="1">
          <mxGeometry x="327" y="98" width="10" height="16" as="geometry" />
        </mxCell>
        <mxCell id="-s6-AU1Ji8MIg3m7ms6S-2" value="0..*" style="text;html=1;align=right;verticalAlign=middle;whiteSpace=wrap;rounded=0;fontSize=12;fillColor=default;" parent="1" vertex="1">
          <mxGeometry x="590" y="135" width="20" height="16" as="geometry" />
        </mxCell>
        <mxCell id="-s6-AU1Ji8MIg3m7ms6S-4" value="1..*" style="text;html=1;strokeColor=none;fillColor=default;align=center;verticalAlign=middle;whiteSpace=wrap;rounded=0;fontSize=12;" parent="1" vertex="1">
          <mxGeometry x="190" y="275" width="20" height="16" as="geometry" />
        </mxCell>
        <mxCell id="-s6-AU1Ji8MIg3m7ms6S-5" value="2" style="text;html=1;strokeColor=none;fillColor=default;align=center;verticalAlign=middle;whiteSpace=wrap;rounded=0;fontSize=12;" parent="1" vertex="1">
          <mxGeometry x="463" y="225" width="10" height="16" as="geometry" />
        </mxCell>
        <mxCell id="-s6-AU1Ji8MIg3m7ms6S-6" value="0..*" style="text;html=1;strokeColor=none;fillColor=default;align=center;verticalAlign=middle;whiteSpace=wrap;rounded=0;fontSize=12;" parent="1" vertex="1">
          <mxGeometry x="560" y="415" width="20" height="16" as="geometry" />
        </mxCell>
      </root>
    </mxGraphModel>
  </diagram>
</mxfile>
